<svg height="511pt" viewBox="1 -19 511.99998 511" width="511pt" xmlns="http://www.w3.org/2000/svg"><path d="m512 92.5c0 38.058594-30.851562 68.910156-68.914062 68.910156-38.058594 0-68.910157-30.851562-68.910157-68.910156 0-38.0625 30.851563-68.914062 68.910157-68.914062 38.0625 0 68.914062 30.851562 68.914062 68.914062zm0 0" fill="#de8957"/><path d="m493.730469 139.21875c-12.75-31.085938-31.664063-59.628906-56.136719-84.105469-8.496094-8.496093-17.496094-16.308593-26.910156-23.441406-21.722656 11.597656-36.511719 34.480469-36.511719 60.824219 0 38.0625 30.855469 68.914062 68.914063 68.914062 20.027343 0 38.050781-8.550781 50.644531-22.191406zm0 0" fill="#c76d33"/><path d="m446.183594 117.058594c15.246094 0 27.652344-12.40625 27.652344-27.65625 0-15.246094-12.40625-27.652344-27.652344-27.652344-15.25 0-27.65625 12.40625-27.65625 27.652344 0 15.25 12.40625 27.65625 27.65625 27.65625zm0 0" fill="#f5d5c4"/><path d="m137.824219 92.5c0 38.058594-30.851563 68.910156-68.910157 68.910156-38.0625 0-68.914062-30.851562-68.914062-68.910156 0-38.0625 30.851562-68.914062 68.914062-68.914062 38.058594 0 68.910157 30.851562 68.910157 68.914062zm0 0" fill="#de8957"/><path d="m18.269531 139.21875c12.59375 13.640625 30.617188 22.191406 50.644531 22.191406 38.058594 0 68.914063-30.851562 68.914063-68.914062 0-26.34375-14.789063-49.226563-36.511719-60.824219-9.414062 7.132813-18.414062 14.945313-26.910156 23.441406-24.472656 24.476563-43.390625 53.019531-56.136719 84.105469zm0 0" fill="#c76d33"/><path d="m65.816406 117.058594c-15.246094 0-27.652344-12.40625-27.652344-27.65625 0-15.246094 12.40625-27.652344 27.652344-27.652344 15.25 0 27.65625 12.40625 27.65625 27.652344 0 15.25-12.40625 27.65625-27.65625 27.65625zm0 0" fill="#f5d5c4"/><path d="m472.378906 98.246094c-8.257812-12.847656-17.71875-25.027344-28.324218-36.40625-14.257813 1.089844-25.527344 13.03125-25.527344 27.5625 0 15.25 12.40625 27.65625 27.652344 27.65625 12.15625 0 22.5-7.886719 26.199218-18.8125zm0 0" fill="#edb798"/><path d="m67.945312 61.839844c-10.605468 11.378906-20.066406 23.5625-28.324218 36.40625 3.699218 10.925781 14.042968 18.8125 26.195312 18.8125 15.25 0 27.65625-12.40625 27.65625-27.65625 0-14.53125-11.269531-26.472656-25.527344-27.5625zm0 0" fill="#edb798"/><path d="m492.207031 236.710938c0 130.453124-105.753906 236.207031-236.207031 236.207031s-236.207031-105.753907-236.207031-236.207031c0-130.457032 105.753906-236.210938 236.207031-236.210938s236.207031 105.753906 236.207031 236.210938zm0 0" fill="#de8957"/><path d="m61 236.710938c0-123.511719 94.800781-224.863282 215.605469-235.304688-6.792969-.589844-13.660157-.90625-20.605469-.90625-130.453125 0-236.207031 105.753906-236.207031 236.210938 0 130.453124 105.753906 236.207031 236.207031 236.207031 6.945312 0 13.8125-.316407 20.605469-.90625-120.804688-10.441407-215.605469-111.792969-215.605469-235.300781zm0 0" fill="#c76d33"/><path d="m287.109375 216.8125c22.25 11.347656 37.484375 34.472656 37.484375 61.15625 0 37.886719-30.707031 68.59375-68.59375 68.59375s-68.59375-30.707031-68.59375-68.59375c0-26.683594 15.234375-49.808594 37.484375-61.15625zm0 0" fill="#f5d5c4"/><path d="m287.109375 216.8125c-3.351563 14.070312-16.007813 24.539062-31.109375 24.539062s-27.757812-10.46875-31.109375-24.539062c9.335937-4.753906 19.90625-7.4375 31.109375-7.4375s21.773438 2.683594 31.109375 7.4375zm0 0" fill="#423e4f"/><path d="m284.1875 258.460938c-3.210938-2.808594-8.089844-2.480469-10.902344.730468-1.371094 1.570313-3.460937 2.472656-5.734375 2.472656-2.269531 0-4.359375-.902343-5.730469-2.472656-1.445312-1.652344-3.625-2.632812-5.816406-2.632812-2.203125 0-4.367187.972656-5.816406 2.632812-1.375 1.570313-3.464844 2.472656-5.738281 2.472656-2.269531 0-4.363281-.902343-5.734375-2.472656-2.808594-3.210937-7.6875-3.539062-10.902344-.730468-3.210938 2.808593-3.539062 7.6875-.730469 10.902343 4.304688 4.925781 10.636719 7.753907 17.367188 7.753907 4.128906 0 8.101562-1.066407 11.554687-3.023438 3.449219 1.953125 7.421875 3.023438 11.550782 3.023438 6.730468 0 13.0625-2.828126 17.367187-7.753907 2.808594-3.214843 2.480469-8.09375-.734375-10.902343zm0 0" fill="#423e4f"/><path d="m140.597656 243.339844h-20.308594c-4.265624 0-7.726562 3.460937-7.726562 7.726562 0 4.269532 3.460938 7.726563 7.726562 7.726563h20.308594c4.265625 0 7.726563-3.457031 7.726563-7.726563 0-4.265625-3.460938-7.726562-7.726563-7.726562zm0 0" fill="#ff9db0"/><path d="m143.335938 200.90625c-4.265626 0-7.726563 3.460938-7.726563 7.726562v17.179688c0 4.269531 3.460937 7.726562 7.726563 7.726562 4.265624 0 7.726562-3.457031 7.726562-7.726562v-17.179688c0-4.265624-3.460938-7.726562-7.726562-7.726562zm0 0" fill="#423e4f"/><path d="m391.710938 243.339844h-20.308594c-4.265625 0-7.726563 3.460937-7.726563 7.726562 0 4.269532 3.460938 7.726563 7.726563 7.726563h20.308594c4.269531 0 7.726562-3.457031 7.726562-7.726563 0-4.265625-3.460938-7.726562-7.726562-7.726562zm0 0" fill="#ff9db0"/><path d="m376.390625 225.8125v-17.179688c0-4.265624-3.457031-7.726562-7.726563-7.726562-4.269531 0-7.726562 3.460938-7.726562 7.726562v17.179688c0 4.269531 3.457031 7.726562 7.726562 7.726562 4.269532 0 7.726563-3.457031 7.726563-7.726562zm0 0" fill="#423e4f"/></svg>