<svg id="Capa_1" enable-background="new 0 0 497 497" height="512" viewBox="0 0 497 497" width="512" xmlns="http://www.w3.org/2000/svg"><path d="m43.672 21.814c3.727-9.415 11.899-16.362 21.794-18.515 23.514-5.115 69.247-8.905 105.105 25.754l-117.618 120.965s-39.188-52.647-9.281-128.204z" fill="#ff82b3"/><path d="m209.221 496.995h-80.944c0-48.842 40.038-82.002 40.038-82.002h160.37s40.038 33.16 40.038 82.002h-80.944l-39.279-19.64z" fill="#ff82b3"/><path d="m188.315 414.993h-20s-40.038 33.16-40.038 82.002h20c0-48.842 40.038-82.002 40.038-82.002z" fill="#ff5d9c"/><path d="m453.328 21.814c-3.727-9.415-11.899-16.362-21.794-18.515-23.514-5.115-69.247-8.905-105.105 25.754l117.617 120.965c.001 0 39.189-52.647 9.282-128.204z" fill="#ff82b3"/><path d="m460.313 112.667c-11.139-21.424-25.61-41.254-43.175-58.818-18.301-18.301-39.052-33.261-61.513-44.574-10.021 4.461-19.938 10.831-29.195 19.778l117.617 120.965s10.251-13.781 16.266-37.351z" fill="#ff5d9c"/><path d="m36.687 112.667c6.015 23.57 16.266 37.351 16.266 37.351l117.617-120.965c-9.257-8.948-19.174-15.317-29.195-19.778-22.462 11.313-43.213 26.273-61.513 44.574-17.564 17.564-32.035 37.393-43.175 58.818z" fill="#ff5d9c"/><path d="m414.024 131.154s-.099.126-.277.38c1.164-1.66 26.215-38.423 5.962-92.59-5.268-1.026-11.833-1.911-19.062-2.003-19.202-.247-37.964 5.726-51.934 19.229z" fill="#e6e6e6"/><path d="m82.976 131.154s.099.126.277.38c-1.164-1.66-26.215-38.423-5.962-92.59 5.268-1.026 11.833-1.911 19.062-2.003 19.202-.247 37.964 5.726 51.934 19.229z" fill="#e6e6e6"/><g fill="#c5c3c9"><path d="m414.024 131.154-.01-.012c-.125.188-.218.323-.267.392.178-.254.277-.38.277-.38z"/><path d="m426.218 63.452c-2.932-3.268-5.952-6.475-9.08-9.603-5.996-5.997-12.263-11.623-18.76-16.891-18.404.237-36.246 6.242-49.664 19.212l65.3 74.972c2.418-3.628 18.25-29.2 12.204-67.69z"/><path d="m83.253 131.534c-.048-.069-.141-.204-.266-.392l-.01.012c-.001 0 .098.126.276.38z"/><path d="m70.782 63.452c-6.046 38.49 9.786 64.062 12.204 67.69l65.3-74.972c-13.419-12.97-31.26-18.975-49.665-19.212-6.497 5.269-12.764 10.895-18.76 16.891-3.127 3.128-6.148 6.335-9.079 9.603z"/></g><circle cx="248.5" cy="222.487" fill="#ffaacb" r="208.49"/><path d="m398.878 164.516c8.495 15.941 13.196 35.137 13.196 57.975 0 90.187-73.377 163.564-163.574 163.564s-163.574-73.377-163.574-163.564c0-22.839 4.702-42.034 13.196-57.975l58.131-24.54h185.257z" fill="#ffdcce"/><path d="m114.925 222.491c0-22.839 4.702-42.034 13.196-57.975 3.441-6.462 7.519-12.376 12.144-17.792 0 0-42.144 17.792-42.144 17.792-2.467 4.629-4.603 9.542-6.408 14.731-4.41 12.676-6.788 27.038-6.788 43.244 0 45.094 18.344 85.984 47.963 115.603 29.619 29.618 70.513 47.962 115.611 47.962.026 0 .052-.001.078-.001 3.756 0 7.495-.142 11.241-.397 1.225-.085 2.446-.184 3.68-.296-83.19-7.601-148.573-77.741-148.573-162.871z" fill="#ffcabd"/><path d="m398.878 164.516-14.474 6.628c-17.059 7.806-36.664 7.806-53.713 0l-.819-.379c-17.049-7.806-36.654-7.806-53.703 0l-.818.379c-17.049 7.806-36.654 7.806-53.703 0l-.818-.379c-17.049-7.806-36.654-7.806-53.703 0-.279.13-.549.25-.819.379-17.049 7.806-36.654 7.806-53.713 0l-14.474-6.628c25.035-47.015 83.02-65.671 150.378-65.671s125.345 18.656 150.379 65.671z" fill="#d97c40"/><path d="m98.122 164.516 14.474 6.628c3.482 1.593 7.073 2.843 10.724 3.786 1.434-3.612 3.03-7.088 4.803-10.414 23.155-43.484 74.504-62.695 135.378-65.338-2.368-.103-4.751-.181-7.145-.237-11.048-.278-22.12.001-33.139.84-56.339 4.293-103.256 23.721-125.095 64.735z" fill="#af602d"/><path d="m333.421 222.007v17.97c0 4.142 3.358 7.5 7.5 7.5s7.5-3.358 7.5-7.5v-17.97c0-4.142-3.358-7.5-7.5-7.5s-7.5 3.358-7.5 7.5z" fill="#423e4f"/><path d="m353.158 258.89h-24.475c-4.142 0-7.5 3.358-7.5 7.5s3.358 7.5 7.5 7.5h24.475c4.142 0 7.5-3.358 7.5-7.5s-3.358-7.5-7.5-7.5z" fill="#ff889e"/><path d="m156.08 247.477c4.142 0 7.5-3.358 7.5-7.5v-17.97c0-4.142-3.358-7.5-7.5-7.5s-7.5 3.358-7.5 7.5v17.97c0 4.142 3.358 7.5 7.5 7.5z" fill="#423e4f"/><path d="m168.318 258.89h-24.476c-4.142 0-7.5 3.358-7.5 7.5s3.358 7.5 7.5 7.5h24.476c4.142 0 7.5-3.358 7.5-7.5s-3.358-7.5-7.5-7.5z" fill="#ff889e"/><path d="m269.966 252.415c-3.119-2.726-7.857-2.408-10.583.71-2.639 3.019-6.606 4.75-10.884 4.75s-8.245-1.731-10.883-4.75c-2.727-3.119-7.464-3.437-10.583-.711s-3.437 7.464-.711 10.583c5.487 6.277 13.57 9.878 22.177 9.878 8.606 0 16.689-3.601 22.177-9.878 2.727-3.118 2.409-7.856-.71-10.582z" fill="#423e4f"/><path d="m164.013 85.769c4.142 0 7.5-3.358 7.5-7.5v-14.976c0-4.142-3.358-7.5-7.5-7.5s-7.5 3.358-7.5 7.5v14.976c0 4.142 3.358 7.5 7.5 7.5z" fill="#423e4f"/><path d="m332.987 85.769c4.142 0 7.5-3.358 7.5-7.5v-14.976c0-4.142-3.358-7.5-7.5-7.5s-7.5 3.358-7.5 7.5v14.976c0 4.142 3.358 7.5 7.5 7.5z" fill="#423e4f"/><path d="m284.808 56.892c-3.119-2.726-7.856-2.408-10.583.711-2.431 2.781-6.09 4.376-10.039 4.376s-7.608-1.595-10.039-4.375c-1.485-1.699-3.758-2.66-6.01-2.55-2.01.097-3.958 1.034-5.283 2.55-2.431 2.781-6.091 4.376-10.04 4.376s-7.608-1.595-10.04-4.376c-2.726-3.119-7.464-3.437-10.583-.711s-3.437 7.464-.71 10.583c5.28 6.04 13.055 9.504 21.333 9.504 5.68 0 11.123-1.632 15.686-4.607 4.563 2.975 10.006 4.607 15.686 4.607 8.278 0 16.054-3.464 21.333-9.504 2.726-3.121 2.408-7.859-.711-10.584z" fill="#423e4f"/><path d="m318.188 497v-30.033c0-4.142 3.358-7.5 7.5-7.5s7.5 3.358 7.5 7.5v30.033z" fill="#ff5d9c"/><path d="m163.812 497v-30.033c0-4.142 3.358-7.5 7.5-7.5s7.5 3.358 7.5 7.5v30.033z" fill="#ff5d9c"/><path d="m287.779 496.995h-78.558c0-21.691 17.588-39.279 39.279-39.279s39.279 17.588 39.279 39.279z" fill="#e6e6e6"/></svg>