<svg xmlns="http://www.w3.org/2000/svg" viewBox="0 0 512 512"><path fill="#f3ce72" d="M390.93 327.77H121.07l33.38 164.31A24.87 24.87 0 00178.82 512h154.36a24.87 24.87 0 0024.37-19.92l33.38-164.3z"/><path d="M390.93 327.77H121.07l33.38 164.31A24.87 24.87 0 00178.82 512h75.53a24.87 24.87 0 01-24.37-19.92L201.8 353.4h183.92l5.2-25.63z" opacity=".08"/><path d="M385.66 353.7l-162.75 60.1-92.57-40.4 3.65 17.96 224.14 97.83 3.06-15.03-118.43-51.7L382.15 371z" opacity=".1"/><path fill="#f0bdd5" d="M256 281.3c118.84 0 165.99-8.97 165.99-88.96 0-61.58-45.81-116.44-106.14-142.05-23.67-10.04-38.13-16.3-52.13-45.42a8.56 8.56 0 00-15.44 0c-14 29.11-28.46 35.38-52.13 45.42C135.82 75.9 90 130.76 90 192.34c0 80 47.15 88.97 165.99 88.97z"/><path fill="#e978a0" d="M247.21 244.23C131.4 240.1 163.35 120.41 200.6 92.15c43.49-33 44.07-41.15 47.68-87.29-14 29.12-28.46 35.39-52.13 45.43C135.82 75.9 90 130.76 90 192.34c0 80 47.15 88.97 165.99 88.97 22.22 0 41.94-.32 59.3-1.35-9.34-19.08-31.97-34.44-68.09-35.73z" opacity=".3"/><path fill="#f3ce72" d="M396.4 327.77H115.6a43.98 43.98 0 010-87.97h280.8c24.29 0 43.98 19.7 43.98 44 0 24.28-19.7 43.97-43.99 43.97z"/><path fill="#fff" d="M396.4 327.77H115.6a43.98 43.98 0 010-87.97h280.8c24.29 0 43.98 19.7 43.98 44 0 24.28-19.7 43.97-43.99 43.97z" opacity=".6"/><path d="M156.61 283.79c0-24.3 19.7-43.98 43.99-43.98h-85a43.98 43.98 0 000 87.97h85a43.98 43.98 0 01-43.99-43.99z" opacity=".08"/><g fill="#485358"><path d="M193.65 154.38a7.5 7.5 0 01-7.5-7.5v-10.64a7.5 7.5 0 1115 0v10.64a7.5 7.5 0 01-7.5 7.5zM318.35 154.38a7.5 7.5 0 01-7.5-7.5v-10.64a7.5 7.5 0 1115 0v10.64a7.5 7.5 0 01-7.5 7.5zM274.6 155.01c0 10.13-8.39 18.3-18.6 17.94-9.73-.34-17.3-8.63-17.3-18.37v-12.62c0-2.7 2.2-4.9 4.9-4.9h26.1c2.71 0 4.9 2.2 4.9 4.9V155z"/></g><path fill="#e978a0" d="M355.95 78.72c-.8.39-1.64.7-2.53.92l-25.87 6.48a13 13 0 01-6.32-25.22l25.87-6.48a13 13 0 018.85 24.3z"/><path fill="#4d94ae" d="M180.98 90.96a13 13 0 01-2.7 0l-26.54-2.62a13 13 0 012.56-25.87l26.54 2.62a13 13 0 01.14 25.87z"/><path fill="#c06376" d="M109.42 142.44c.83.33 1.63.74 2.4 1.24l22.32 14.6a13 13 0 01-14.24 21.76l-22.31-14.6a13 13 0 0111.83-23z"/><path fill="#4d94ae" d="M350.64 190.01c.7-.54 1.46-1.02 2.3-1.42l23.98-11.65a13 13 0 0111.36 23.38l-23.99 11.66A13 13 0 01350.64 190z"/></svg>