<svg xmlns="http://www.w3.org/2000/svg" viewBox="0 0 512 512"><g fill="#f3f5e6"><path d="M352.17 0H159.83a26.56 26.56 0 00-26.55 26.56v42.3l125.5 33.32 119.95-33.32v-42.3A26.56 26.56 0 00352.17 0zM295.43 179.92l-113.29-49.98-132.16 49.98v301.1A30.98 30.98 0 0080.96 512h214.47l83.3-166.04-83.3-166.04z"/></g><path fill="#d7d9cc" d="M378.73 141.05l-83.3 38.87V512h135.61a30.98 30.98 0 0030.98-30.98v-301.1l-83.3-38.87z"/><path fill="#80e2ff" d="M49.98 269.89h245.45v152.16H49.98z"/><g fill="#3b484a"><path d="M106.52 350.17a7.73 7.73 0 01-7.73-7.73v-11.98a7.73 7.73 0 1115.45 0v11.98a7.73 7.73 0 01-7.72 7.73zM238.9 350.17a7.73 7.73 0 01-7.73-7.73v-11.98a7.73 7.73 0 1115.45 0v11.98a7.73 7.73 0 01-7.73 7.73zM172.7 356.56c-8.6 0-16.67-3.6-22.15-9.87a7.73 7.73 0 1111.64-10.17c2.54 2.92 6.38 4.59 10.51 4.59s7.98-1.67 10.52-4.59a7.72 7.72 0 1111.64 10.17 29.32 29.32 0 01-22.16 9.87z"/></g><path fill="#55c2e3" d="M378.73 68.86l-83.3 111.06h166.6z"/><path fill="#80e2ff" d="M49.98 179.92l83.3-111.06h245.45l-83.3 111.06z"/><path fill="#55c2e3" d="M295.43 269.89h166.59v152.16H295.43z"/></svg>