<svg xmlns="http://www.w3.org/2000/svg" viewBox="0 -52 512 512"><path fill="#f5b96e" d="M433.24 177.25a44.3 44.3 0 100-88.59H78.76a44.3 44.3 0 100 88.6 44.3 44.3 0 000 88.6h354.48a44.3 44.3 0 100-88.6zm0 0"/><path fill="#e8af68" d="M65.37 221.55a44.3 44.3 0 0144.3-44.3h-30.9a44.3 44.3 0 000 88.6h30.9a44.3 44.3 0 01-44.3-44.3zm0 0"/><path fill="#e8af68" d="M65.37 132.96a44.3 44.3 0 0144.3-44.3h-30.9a44.3 44.3 0 100 88.6h30.9a44.3 44.3 0 01-44.3-44.3zm0 0"/><path fill="#add9e8" d="M438.16 407.95H73.84a36.88 36.88 0 01-36.07-29.2l-16.34-76.8h469.14l-16.34 76.8a36.88 36.88 0 01-36.07 29.2zm0 0"/><path fill="#9bc3d0" d="M68.67 378.74l-16.34-76.8h-30.9l16.34 76.8a36.88 36.88 0 0036.07 29.2h30.91a36.89 36.89 0 01-36.08-29.2zm0 0"/><path fill="#c2e3ee" d="M496.77 338.03H15.23A15.23 15.23 0 010 322.8v-41.73c0-8.4 6.82-15.22 15.23-15.22h481.55c8.4 0 15.22 6.82 15.22 15.22v41.73c0 8.41-6.82 15.23-15.23 15.23zm0 0"/><path fill="#add9e8" d="M30.9 322.8v-41.73c0-8.4 6.82-15.22 15.23-15.22h-30.9A15.23 15.23 0 000 281.08v41.72c0 8.41 6.82 15.23 15.23 15.23h30.9c-8.4 0-15.22-6.82-15.22-15.23zm0 0"/><path fill="#f9efd1" d="M433.24 0H78.76a44.3 44.3 0 100 88.6h88.6a44.3 44.3 0 0144.3 44.3v44.3c0 24.46 19.83 44.3 44.3 44.3s44.29 19.82 44.29 44.29a44.3 44.3 0 1088.6 0v-132.9a44.3 44.3 0 0144.3-44.3h.1A44.3 44.3 0 10433.23 0zm0 0"/><g fill="#4a5359"><path d="M256 74.21a27.48 27.48 0 01-23.77-13.76 7.5 7.5 0 0113-7.47c2.22 3.84 6.34 6.23 10.77 6.23s8.55-2.39 10.76-6.23a7.5 7.5 0 1113 7.48A27.49 27.49 0 01256 74.2zm0 0M321.6 44.05a7.5 7.5 0 01-7.5-7.5v-11.7a7.5 7.5 0 1115 0v11.7a7.5 7.5 0 01-7.5 7.5zm0 0M190.39 44.05a7.5 7.5 0 01-7.5-7.5v-11.7a7.5 7.5 0 1115 0v11.7a7.5 7.5 0 01-7.5 7.5zm0 0"/></g><path fill="#e3637b" d="M327.46 66.16h-11.7a7.5 7.5 0 110-15h11.7a7.5 7.5 0 110 15zm0 0M196.24 66.16h-11.7a7.5 7.5 0 110-15h11.7a7.5 7.5 0 010 15zm0 0"/></svg>