<svg id="Capa_1" enable-background="new 0 0 497 497" height="512" viewBox="0 0 497 497" width="512" xmlns="http://www.w3.org/2000/svg"><g><path d="m420.962 0h-229.03c-20.518 0-37.151 16.633-37.151 37.151v306.805c0 20.518 16.633 37.151 37.151 37.151h229.03c20.518 0 37.151-16.633 37.151-37.151v-306.805c0-20.518-16.633-37.151-37.151-37.151z" fill="#f9f097"/><path d="m363.015 27.947h-207.083c-.75 2.943-1.151 6.027-1.151 9.204v306.804c0 20.518 16.633 37.151 37.151 37.151h229.03c3.177 0 6.26-.401 9.204-1.151v-284.857c0-37.027-30.124-67.151-67.151-67.151z" fill="#fbc072"/><path d="m363.015 57.947h-229.03c-20.518 0-37.151 16.633-37.151 37.151v306.805c0 20.518 16.633 37.151 37.151 37.151h229.03c20.518 0 37.151-16.633 37.151-37.151v-306.805c0-20.518-16.633-37.151-37.151-37.151z" fill="#a4e6ff"/><path d="m305.068 85.894h-207.083c-.75 2.943-1.151 6.027-1.151 9.204v306.804c0 20.518 16.633 37.151 37.151 37.151h229.03c3.177 0 6.26-.4 9.203-1.151v-284.857c.001-37.027-30.123-67.151-67.15-67.151z" fill="#5bd6fd"/><path d="m305.068 115.894h-178.292l-28.782 62.994-59.107 24.894v256.067c0 20.518 16.633 37.151 37.151 37.151h229.03c20.518 0 37.151-16.633 37.151-37.151v-306.804c0-20.518-16.633-37.151-37.151-37.151z" fill="#ff97c0"/><path d="m126.776 115.894-28.782 62.994-59.107 24.894v30h63.481c30 0 54.407-24.407 54.407-54.407v-63.481z" fill="#ff71a7"/><path d="m38.887 203.782h63.481c13.48 0 24.407-10.928 24.407-24.407v-63.481z" fill="#ff97c0"/><g fill="#ffbdd7"><ellipse cx="102.034" cy="324.568" rx="32.662" ry="26.01"/><ellipse cx="279.072" cy="324.568" rx="32.662" ry="26.01"/></g><g><path d="m121.069 307.03c-4.142 0-7.5-3.358-7.5-7.5v-13.352c0-4.142 3.358-7.5 7.5-7.5s7.5 3.358 7.5 7.5v13.352c0 4.142-3.358 7.5-7.5 7.5z" fill="#423e4f"/></g><g><path d="m260.037 307.03c-4.142 0-7.5-3.358-7.5-7.5v-13.352c0-4.142 3.358-7.5 7.5-7.5s7.5 3.358 7.5 7.5v13.352c0 4.142-3.358 7.5-7.5 7.5z" fill="#423e4f"/></g><g><path d="m190.553 314.978c-9.188 0-17.927-3.979-23.973-10.918-2.721-3.123-2.396-7.86.727-10.582 3.123-2.721 7.861-2.396 10.582.727 3.197 3.669 7.813 5.773 12.665 5.773s9.467-2.104 12.665-5.773c2.722-3.124 7.459-3.448 10.582-.727s3.448 7.459.727 10.582c-6.048 6.939-14.786 10.918-23.975 10.918z" fill="#423e4f"/></g></g></svg>