<svg height="512pt" viewBox="-20 0 512 512" width="512pt" xmlns="http://www.w3.org/2000/svg"><path d="m95.414062 512c-22.917968 0-42.0625-16.140625-46.691406-37.671875-1.113281-5.179687 2.769532-10.085937 8.070313-10.085937h17.460937c11.6875 0 21.160156-9.472657 21.160156-21.15625v-278.371094c0-90.96875 73.742188-164.714844 164.710938-164.714844 90.972656 0 164.714844 73.746094 164.714844 164.714844v278.371094c0 11.683593 9.472656 21.15625 21.15625 21.15625h17.464844c5.296874 0 9.183593 4.90625 8.070312 10.085937-4.628906 21.53125-23.773438 37.671875-46.691406 37.671875zm0 0" fill="#3d4851"/><path d="m259.425781 44.226562c-66.261719.382813-119.378906 55.136719-119.378906 121.402344v58.625c0 17.304688 14.027344 31.335938 31.335937 31.335938h18.144532c8.535156 0 15.457031 6.917968 15.457031 15.453125 0 12.109375 9.816406 21.925781 21.925781 21.925781h9.34375l7.726563-2.210938 7.726562 2.210938h15.441407l7.722656-2.46875 7.726562 2.46875h10.746094c12.109375 0 21.929688-9.816406 21.929688-21.925781 0-8.535157 6.917968-15.453125 15.453124-15.453125h18.144532c17.308594 0 31.335937-14.03125 31.335937-31.335938v-59.945312c0-66.449219-54.25-120.464844-120.78125-120.082032zm0 0" fill="#ebebeb"/><path d="m259.425781 44.226562c-66.261719.382813-119.378906 55.136719-119.378906 121.402344v30.902344c0-66.261719 53.117187-121.015625 119.378906-121.398438 66.53125-.382812 120.78125 53.632813 120.78125 120.078126v-30.90625c0-66.445313-54.25-120.460938-120.78125-120.078126zm0 0" fill="#d5d4da"/><g fill="#333a41"><path d="m191.066406 226.71875c-4.265625 0-7.726562-3.460938-7.726562-7.726562v-11.222657c0-4.265625 3.460937-7.726562 7.726562-7.726562 4.269532 0 7.726563 3.460937 7.726563 7.726562v11.222657c0 4.265624-3.457031 7.726562-7.726563 7.726562zm0 0"/><path d="m329.1875 226.71875c-4.269531 0-7.726562-3.460938-7.726562-7.726562v-11.222657c0-4.265625 3.457031-7.726562 7.726562-7.726562 4.265625 0 7.726562 3.460937 7.726562 7.726562v11.222657c0 4.265624-3.460937 7.726562-7.726562 7.726562zm0 0"/><path d="m270.15625 228.679688-5.347656-10.332032c-1.980469-3.824218-7.472656-3.742187-9.34375.132813l-4.980469 10.332031c-1.671875 3.46875.855469 7.492188 4.703125 7.492188h10.332031c3.917969 0 6.4375-4.148438 4.636719-7.625zm0 0"/><path d="m236.253906 292.96875v-23.535156c0-4.265625 3.457032-7.726563 7.726563-7.726563 4.265625 0 7.726562 3.460938 7.726562 7.726563v23.535156zm0 0"/><path d="m267.144531 292.96875v-23.535156c0-4.265625 3.460938-7.726563 7.726563-7.726563 4.269531 0 7.726562 3.460938 7.726562 7.726563v23.535156zm0 0"/></g><path d="m374.171875 436.75c-15.359375-17.628906-45.828125-42.976562-106.09375-71.953125-76.308594-36.164063-92.039063-62.386719-115.847656-102.085937-14.519531-24.203126-32.355469-53.9375-67.9375-91.042969-4.210938-4.390625-11.207031-4.484375-15.511719-.179688l-10.179688 10.179688c-4.164062 4.164062-4.242187 10.902343-.164062 15.15625 32.613281 34.023437 48.617188 60.710937 62.855469 84.441406 25.230469 42.066406 45.160156 75.292969 131.246093 116.085937 58.945313 28.34375 84.589844 51.550782 95.246094 64.140626 4.207032 4.96875 11.789063 5.175781 16.226563.414062l9.917969-10.640625c3.78125-4.0625 3.890624-10.328125.242187-14.515625zm0 0" fill="#e3986d"/><path d="m152.230469 262.710938c-7.957031-13.261719-16.914063-28.183594-29.230469-45.070313l-30.832031 18.945313c12.167969 16.421874 20.941406 31.042968 29.125 44.683593 3.285156 5.476563 6.480469 10.800781 9.742187 16.015625 8.710938-8.304687 17.992188-16.253906 27.835938-23.582031-2.179688-3.554687-4.375-7.210937-6.640625-10.992187zm0 0" fill="#d97c40"/><path d="m151.820312 218.636719c-7.804687-12.320313-17.453124-26.203125-31.089843-41.921875-7.039063-8.117188-19.429688-8.699219-27.28125-1.363282-35.539063 33.214844-121.492188 128.292969-84.304688 242.335938 0 0 48.054688-110.34375 137.667969-173.421875 8.25-5.804687 10.40625-17.105469 5.007812-25.628906zm0 0" fill="#a5b0bc"/><path d="m124.851562 181.554688c-1.335937-1.59375-2.699218-3.207032-4.121093-4.839844-7.039063-8.117188-19.429688-8.703125-27.28125-1.363282-33.085938 30.917969-109.832031 115.449219-90.289063 218.980469 19.847656-97.171875 84.476563-174.773437 121.691406-212.777343zm0 0" fill="#8597a5"/><path d="m268.078125 364.796875c-11.007813-5.21875-20.753906-10.226563-29.445313-15.101563-8.4375 8.613282-14.304687 19.746094-16.355468 32.15625 9.085937 5.066407 19.113281 10.21875 30.261718 15.5 31.066407 14.941407 52.875 28.449219 68.121094 39.730469 9.207032-7.949219 15.988282-18.640625 19.042969-30.796875-17.261719-12.480468-40.449219-26.496094-71.625-41.488281zm0 0" fill="#d97c40"/><path d="m310.605469 391.664062c0 16.078126-13.035157 29.117188-29.117188 29.117188s-29.117187-13.039062-29.117187-29.117188c0-16.082031 13.035156-29.121093 29.117187-29.121093s29.117188 13.039062 29.117188 29.121093zm0 0" fill="#ebebeb"/><path d="m252.371094 391.664062c0 11.859376 7.097656 22.058594 17.273437 26.597657 8.453125-5.730469 15.15625-13.714844 19.367188-23.292969 4.207031-9.582031 5.558593-19.921875 4.058593-30.023438-3.550781-1.542968-7.464843-2.402343-11.582031-2.402343-16.082031 0-29.117187 13.039062-29.117187 29.121093zm0 0" fill="#d5d4da"/><path d="m265.898438 362.316406c-5.835938-14.984375-22.714844-22.402344-37.699219-16.566406s-22.402344 22.714844-16.566407 37.699219c5.835938 14.988281 22.714844 22.402343 37.699219 16.566406s22.402344-22.714844 16.566407-37.699219zm0 0" fill="#ebebeb"/></svg>