<svg id="Capa_1" enable-background="new 0 0 497 497" height="512" viewBox="0 0 497 497" width="512" xmlns="http://www.w3.org/2000/svg"><path d="m465.885 422.631c-1.353 25.893-27.021 43.488-51.593 35.212-41.392-13.941-81.106-32.87-117.971-56.294-5.635-3.58-11.488-7.589-14.208-13.686-4.18-9.37.381-20.207 5.578-29.053 18.791-31.983 47.028-58.338 80.229-74.882 17.806-8.872 37.007-14.904 56.664-17.934 11.67-1.799 37.563-7.79 46.179 3.953 4.792 6.531 2.194 17.328 1.809 24.685-.398 7.649-4.039 77.334-6.687 127.999z" fill="#fcd2a5"/><path d="m497 235.068c0-109.338-111.257-197.975-248.5-197.975s-248.5 88.637-248.5 197.975 111.257 197.975 248.5 197.975c43.27 0 89.28-8.381 128.168-28.411 6.103-3.143 13.567-1.266 17.648 4.253 12.891 17.436 26.818 34.106 41.696 49.88 16.06-3.965 28.927-18.01 29.874-36.135 1.629-31.172 3.634-69.542 5.029-96.236.111-2.132.75-4.19 1.816-6.039 14.673-25.453 24.269-55.857 24.269-85.287z" fill="#fff1ce"/><path d="m94.467 79.703c-57.542 36.259-94.467 92.378-94.467 155.365 0 85.982 68.808 159.18 164.943 186.521-139.573-110.776-104.534-295.592-70.476-341.886z" fill="#fcd2a5"/><path d="m105.341 188.214c.007 13.438-13.667 24.338-30.541 24.346s-30.559-10.878-30.566-24.315c-.007-13.438 13.667-24.338 30.541-24.347s30.559 10.878 30.566 24.316z" fill="#ffa1ac"/><path d="m258.88 188.161c.007 13.438 13.691 24.324 30.566 24.315 16.874-.008 30.548-10.908 30.541-24.346s-13.691-24.325-30.566-24.316c-16.874.009-30.548 10.909-30.541 24.347z" fill="#ffa1ac"/><g fill="#333942"><path d="m212.817 179.236c-.009-18.509-13.419-20.242-29.96-20.233-16.54.008-29.949 1.754-29.939 20.263.009 18.509 13.426 33.506 29.966 33.498 16.541-.008 29.942-15.019 29.933-33.528z"/><path d="m90.319 171.314c-4.141 0-7.498-3.355-7.5-7.496-.003-5.888 2.287-11.424 6.448-15.59 4.162-4.166 9.696-6.461 15.584-6.464h.011c12.15 0 22.036 9.88 22.043 22.032.002 4.142-3.354 7.501-7.496 7.504-.001 0-.003 0-.004 0-4.141 0-7.498-3.355-7.5-7.496-.002-3.882-3.161-7.04-7.043-7.04-.001 0-.002 0-.004 0-1.881.001-3.649.734-4.979 2.065s-2.061 3.1-2.06 4.981c.002 4.142-3.354 7.501-7.496 7.504-.001 0-.003 0-.004 0z"/><path d="m246.315 171.249c-4.141 0-7.498-3.355-7.5-7.497-.006-12.154 9.877-22.047 22.032-22.054h.011c5.884 0 11.416 2.29 15.579 6.449 4.165 4.161 6.461 9.695 6.464 15.583.002 4.142-3.354 7.501-7.496 7.503-.001 0-.003 0-.004 0-4.141 0-7.498-3.355-7.5-7.497-.001-1.881-.734-3.649-2.065-4.979-1.33-1.329-3.098-2.061-4.978-2.061-.001 0-.002 0-.003 0-3.884.002-7.041 3.163-7.039 7.047.002 4.142-3.354 7.501-7.497 7.503-.002.003-.003.003-.004.003z"/></g></svg>