<svg xmlns="http://www.w3.org/2000/svg" width="4000" height="2471" viewBox="0 0 4000 2471"><rect width="100%" height="100%" fill="#1562d6"/><path fill="#f8e06d" d="m1797.29 1051.955-80.34-14.21q9.27-64.28 35.85-112.79 26.57-48.51 66.43-80.96 39.86-32.44 91.47-48.82 51.6-16.38 110.93-16.38 61.8 0 111.55 17.62 49.75 17.61 84.97 48.82 35.23 31.21 54.08 73.23 18.85 42.03 18.85 90.85 0 42.64-9.58 75.09-9.58 32.44-27.5 56.54-17.93 24.1-44.5 40.79t-59.95 27.81q80.34 25.34 119.9 77.25 39.55 51.91 39.55 130.4 0 66.74-24.72 118.04-24.72 51.29-66.75 86.21-42.02 34.91-97.33 52.84-55.31 17.92-117.11 17.92-67.36 0-117.42-15.45t-87.14-45.73q-37.08-30.29-63.04-74.16-25.95-43.88-44.49-101.36l67.36-27.81q26.57-11.12 49.75-5.87 23.17 5.26 33.68 25.03 11.12 21.63 24.41 42.64 13.29 21.02 31.83 37.39 18.54 16.38 43.57 26.58 25.03 10.19 59.63 10.19 38.94 0 67.98-12.66 29.05-12.67 48.52-33.07 19.46-20.39 29.04-45.42t9.58-50.37q0-32.13-6.8-58.4-6.79-26.26-28.42-44.8t-62.11-29.05-108.46-10.51v-108.76q56.24-.62 93.32-10.51t59.02-27.5q21.93-17.61 30.59-42.33 8.65-24.72 8.65-54.39 0-63.03-35.23-95.79-35.22-32.75-93.93-32.75-27.2 0-50.06 7.72-22.87 7.73-41.1 21.63-18.23 13.91-30.59 32.45t-18.54 40.79q-10.51 28.42-27.5 37.69-17 9.27-47.9 4.33"/></svg>