<svg xmlns="http://www.w3.org/2000/svg" width="4000" height="2471" viewBox="0 0 4000 2471"><rect width="100%" height="100%" fill="#f8e06d"/><path fill="#1562d6" d="M2023.485 1545.12h229.28q24.72 0 39.24 13.91 14.52 13.9 14.52 36.77v91.46h-613.05v-50.68q0-15.45 6.49-32.44 6.49-17 20.7-30.59l271.3-271.92q33.99-34.61 60.87-66.13 26.89-31.52 44.81-62.42t27.5-62.72q9.58-31.83 9.58-67.06 0-32.13-9.27-56.54t-26.26-41.1q-17-16.69-40.79-25.03-23.8-8.34-53.46-8.34-27.19 0-50.37 7.72-23.17 7.73-41.09 21.63-17.93 13.91-30.29 32.45t-18.54 40.79q-10.5 28.42-27.19 37.69-16.68 9.27-48.2 4.33l-80.34-14.21q9.27-64.28 35.84-112.79 26.58-48.51 66.44-80.96 39.86-32.44 91.46-48.82t110.93-16.38q61.8 0 113.1 18.24 51.29 18.23 87.75 51.6t56.86 80.34q20.39 46.97 20.39 104.44 0 49.44-14.52 91.46-14.52 42.03-38.93 80.34-24.42 38.32-57.17 74.16-32.75 35.85-68.6 72.93l-201.47 205.79q29.05-8.65 57.79-13.28 28.73-4.64 54.69-4.64"/></svg>